#tb 0: 1/25
#media_type 0: video
#codec_id 0: rawvideo
#dimensions 0: 416x240
#sar 0: 1/1
0,          0,          0,        1,   299520, 0xd2f2d694
0,          1,          1,        1,   299520, 0x8174e88c
0,          2,          2,        1,   299520, 0x456be74d
0,          4,          4,        1,   299520, 0x5a72624f
0,          5,          5,        1,   299520, 0x34f5a58c
0,          9,          9,        1,   299520, 0xbe520b7d
0,         10,         10,        1,   299520, 0x7365e277
0,         12,         12,        1,   299520, 0x0ffb94b2
0,         13,         13,        1,   299520, 0x5904d425
0,         17,         17,        1,   299520, 0x88d52d27
0,         18,         18,        1,   299520, 0x21296a87
0,         20,         20,        1,   299520, 0xfc4d9d06
0,         21,         21,        1,   299520, 0xfc29b441
0,         25,         25,        1,   299520, 0xcd3ef62e
0,         26,         26,        1,   299520, 0x365f7118
0,         28,         28,        1,   299520, 0xe5d9097c
0,         29,         29,        1,   299520, 0x16d95597
0,         33,         33,        1,   299520, 0xdd137707
0,         34,         34,        1,   299520, 0xb03a90bd
0,         36,         36,        1,   299520, 0x97131c33
0,         37,         37,        1,   299520, 0x397855c5
0,         45,         45,        1,   299520, 0x31fe120a
0,         46,         46,        1,   299520, 0x6d2b346c
0,         47,         47,        1,   299520, 0xd4a77c9a
0,         48,         48,        1,   299520, 0xa6f266ed
0,         49,         49,        1,   299520, 0xec405ed0
0,         50,         50,        1,   299520, 0xd406fb3f
0,         51,         51,        1,   299520, 0xb391c814
